<svg fill="none" height="402" viewBox="0 0 675 402" width="675" xmlns="http://www.w3.org/2000/svg" xmlns:xlink="http://www.w3.org/1999/xlink"><mask id="a" height="91" maskUnits="userSpaceOnUse" width="91" x="153" y="56"><path d="m198.415 146.138c24.772 0 44.853-20.07 44.853-44.828 0-24.7573-20.081-44.8273-44.853-44.8273-24.771 0-44.853 20.07-44.853 44.8273 0 24.758 20.082 44.828 44.853 44.828z" fill="#fff"/></mask><g opacity=".6"><path d="m0 0h677v402h-677z" fill="#fff"/><g mask="url(#a)"><path d="m198.415 146.138c24.772 0 44.853-20.07 44.853-44.828 0-24.7573-20.081-44.8273-44.853-44.8273-24.771 0-44.853 20.07-44.853 44.8273 0 24.758 20.082 44.828 44.853 44.828z" fill="#fde7e7"/><path clip-rule="evenodd" d="m173.642 119.947c1.259 0 45.72.206 46.926 0 0-7.411 0-15.317 0-23.7174 0-13.9576-10.505-25.2726-23.463-25.2726-12.959 0-23.463 11.315-23.463 25.2726z" fill="#fac7c7" fill-rule="evenodd"/><path d="m196.778 150.719c17.72 0 32.084-5.567 32.084-12.434s-14.364-12.434-32.084-12.434-32.085 5.567-32.085 12.434 14.365 12.434 32.085 12.434z" fill="#fac7c7"/><path clip-rule="evenodd" d="m189.575 106.873h14.405v19.632l-7.202 9.817-7.203-9.817z" fill="#fcd9d9" fill-rule="evenodd"/><path clip-rule="evenodd" d="m189.575 106.873h14.405v15.706l-14.405-3.927z" fill="#fac7c7" fill-rule="evenodd"/><path d="m197.105 117.998c9.945 0 18.007-9.083 18.007-20.2868 0-11.2042-8.062-20.287-18.007-20.287s-18.006 9.0828-18.006 20.287c0 11.2038 8.061 20.2868 18.006 20.2868z" fill="#fcd9d9"/><path d="m179.753 102.804c2.532 0 4.584-2.312 4.584-5.1642 0-2.8521-2.052-5.1641-4.584-5.1641-2.531 0-4.583 2.312-4.583 5.1641 0 2.8522 2.052 5.1642 4.583 5.1642z" fill="#fcd9d9"/><path d="m214.457 102.804c2.531 0 4.583-2.312 4.583-5.1642 0-2.8521-2.052-5.1641-4.583-5.1641-2.532 0-4.584 2.312-4.584 5.1641 0 2.8522 2.052 5.1642 4.584 5.1642z" fill="#fcd9d9"/><g clip-rule="evenodd" fill="#fac7c7" fill-rule="evenodd"><path d="m180.08 88.6021c.914 0 33.174.0548 34.049 0-.218.46-.327-.4301-.327-2.6703 0-3.722-7.295-10.3937-16.697-10.3937-9.403 0-17.352 6.6717-17.352 10.3937 0 2.4814.109 3.3715.327 2.6703z"/><path d="m211.838 87.8948h2.619v7.853l-2.619 1.9633z"/><path d="m182.372 87.8948h-2.619v7.853l2.619 1.9633z"/></g></g><path d="m114.977 132.442h-66.648c-1.7221 0-3.1181 1.395-3.1181 3.116v113.355c0 1.721 1.396 3.116 3.1181 3.116h66.648c1.722 0 3.118-1.395 3.118-3.116v-113.355c0-1.721-1.396-3.116-3.118-3.116z" fill="#fde7e7"/><path d="m105.428 243.849c3.336 0 6.041-2.703 6.041-6.038 0-3.334-2.705-6.038-6.041-6.038-3.337 0-6.0413 2.704-6.0413 6.038 0 3.335 2.7043 6.038 6.0413 6.038z" fill="#fac7c7"/><path d="m105.428 228.267c3.336 0 6.041-2.703 6.041-6.037 0-3.335-2.705-6.038-6.041-6.038-3.337 0-6.0413 2.703-6.0413 6.038 0 3.334 2.7043 6.037 6.0413 6.037z" fill="#fac7c7"/><g fill="#fcd9d9"><path d="m89.838 228.267c3.3365 0 6.0412-2.703 6.0412-6.037 0-3.335-2.7047-6.038-6.0412-6.038-3.3364 0-6.0411 2.703-6.0411 6.038 0 3.334 2.7047 6.037 6.0411 6.037z"/><path d="m89.838 212.686c3.3365 0 6.0412-2.703 6.0412-6.038 0-3.334-2.7047-6.038-6.0412-6.038-3.3364 0-6.0411 2.704-6.0411 6.038 0 3.335 2.7047 6.038 6.0411 6.038z"/><path d="m74.2472 228.267c3.3365 0 6.0412-2.703 6.0412-6.037 0-3.335-2.7047-6.038-6.0412-6.038-3.3364 0-6.0411 2.703-6.0411 6.038 0 3.334 2.7047 6.037 6.0411 6.037z"/><path d="m74.2472 212.686c3.3365 0 6.0412-2.703 6.0412-6.038 0-3.334-2.7047-6.038-6.0412-6.038-3.3364 0-6.0411 2.704-6.0411 6.038 0 3.335 2.7047 6.038 6.0411 6.038z"/><path d="m58.6574 228.267c3.3364 0 6.0411-2.703 6.0411-6.037 0-3.335-2.7047-6.038-6.0411-6.038-3.3365 0-6.0412 2.703-6.0412 6.038 0 3.334 2.7047 6.037 6.0412 6.037z"/><path d="m58.6574 212.686c3.3364 0 6.0411-2.703 6.0411-6.038 0-3.334-2.7047-6.038-6.0411-6.038-3.3365 0-6.0412 2.704-6.0412 6.038 0 3.335 2.7047 6.038 6.0412 6.038z"/><path d="m89.838 197.105c3.3365 0 6.0412-2.704 6.0412-6.038 0-3.335-2.7047-6.038-6.0412-6.038-3.3364 0-6.0411 2.703-6.0411 6.038 0 3.334 2.7047 6.038 6.0411 6.038z"/></g><path d="m89.838 181.523c3.3365 0 6.0412-2.703 6.0412-6.038 0-3.334-2.7047-6.037-6.0412-6.037-3.3364 0-6.0411 2.703-6.0411 6.037 0 3.335 2.7047 6.038 6.0411 6.038z" fill="#fac7c7"/><path d="m74.2472 197.105c3.3365 0 6.0412-2.704 6.0412-6.038 0-3.335-2.7047-6.038-6.0412-6.038-3.3364 0-6.0411 2.703-6.0411 6.038 0 3.334 2.7047 6.038 6.0411 6.038z" fill="#fcd9d9"/><path d="m74.2472 181.523c3.3365 0 6.0412-2.703 6.0412-6.038 0-3.334-2.7047-6.037-6.0412-6.037-3.3364 0-6.0411 2.703-6.0411 6.037 0 3.335 2.7047 6.038 6.0411 6.038z" fill="#fac7c7"/><path d="m58.6574 197.105c3.3364 0 6.0411-2.704 6.0411-6.038 0-3.335-2.7047-6.038-6.0411-6.038-3.3365 0-6.0412 2.703-6.0412 6.038 0 3.334 2.7047 6.038 6.0412 6.038z" fill="#fcd9d9"/><path d="m58.6574 181.523c3.3364 0 6.0411-2.703 6.0411-6.038 0-3.334-2.7047-6.037-6.0411-6.037-3.3365 0-6.0412 2.703-6.0412 6.037 0 3.335 2.7047 6.038 6.0412 6.038z" fill="#fac7c7"/><path d="m105.428 212.686c3.336 0 6.041-2.703 6.041-6.038 0-3.334-2.705-6.038-6.041-6.038-3.337 0-6.0413 2.704-6.0413 6.038 0 3.335 2.7043 6.038 6.0413 6.038z" fill="#fac7c7"/><path d="m105.428 197.105c3.336 0 6.041-2.704 6.041-6.038 0-3.335-2.705-6.038-6.041-6.038-3.337 0-6.0413 2.703-6.0413 6.038 0 3.334 2.7043 6.038 6.0413 6.038z" fill="#fac7c7"/><path d="m105.428 181.523c3.336 0 6.041-2.703 6.041-6.038 0-3.334-2.705-6.037-6.041-6.037-3.337 0-6.0413 2.703-6.0413 6.037 0 3.335 2.7043 6.038 6.0413 6.038z" fill="#fac7c7"/><path d="m89.838 243.849c3.3365 0 6.0412-2.703 6.0412-6.038 0-3.334-2.7047-6.038-6.0412-6.038-3.3364 0-6.0411 2.704-6.0411 6.038 0 3.335 2.7047 6.038 6.0411 6.038z" fill="#fcd9d9"/><path d="m74.2472 243.849c3.3365 0 6.0412-2.703 6.0412-6.038 0-3.334-2.7047-6.038-6.0412-6.038-3.3364 0-6.0411 2.704-6.0411 6.038 0 3.335 2.7047 6.038 6.0411 6.038z" fill="#fcd9d9"/><path d="m74.4427 231.773h-15.9798v12.076h15.9798z" fill="#fcd9d9"/><path d="m58.6574 243.849c3.3364 0 6.0411-2.703 6.0411-6.038 0-3.334-2.7047-6.038-6.0411-6.038-3.3365 0-6.0412 2.704-6.0412 6.038 0 3.335 2.7047 6.038 6.0412 6.038z" fill="#fcd9d9"/><path d="m108.351 140.622h-52.6168c-1.722 0-3.118 1.395-3.118 3.116v17.14c0 1.721 1.396 3.116 3.118 3.116h52.6168c1.722 0 3.118-1.395 3.118-3.116v-17.14c0-1.721-1.396-3.116-3.118-3.116z" fill="#fcd9d9"/><path d="m598.66 266.052h-101.336c-1.722 0-3.118 1.396-3.118 3.117v61.546c0 1.721 1.396 3.117 3.118 3.117h101.336c1.722 0 3.118-1.396 3.118-3.117v-61.546c0-1.721-1.396-3.117-3.118-3.117z" fill="#fde7e7"/><path clip-rule="evenodd" d="m549.963 292.201 49.34 40.248c.333.272.383.763.111 1.096-.148.181-.37.286-.604.286h-101.637c-.43 0-.779-.348-.779-.779 0-.234.105-.455.286-.603l49.34-40.248c1.148-.936 2.796-.936 3.943 0z" fill="#fcd9d9" fill-rule="evenodd"/><path clip-rule="evenodd" d="m549.963 307.683 49.34-40.248c.333-.272.383-.763.111-1.096-.148-.181-.37-.287-.604-.287h-101.637c-.43 0-.779.349-.779.78 0 .234.105.455.286.603l49.34 40.248c1.148.936 2.796.936 3.943 0z" fill="#fac7c7" fill-rule="evenodd"/><path clip-rule="evenodd" d="m290.756 313.186h171.101v85.698c0 1.721-1.396 3.116-3.118 3.116h-164.865c-1.722 0-3.118-1.395-3.118-3.116z" fill="#fde7e7" fill-rule="evenodd"/><path clip-rule="evenodd" d="m290.756 313.186h44.821v85.698c0 1.721-1.396 3.116-3.118 3.116h-38.585c-1.722 0-3.118-1.395-3.118-3.116z" fill="#fac7c7" fill-rule="evenodd"/><path d="m299.136 325.067h28.841" stroke="#fde7e7" stroke-linecap="round" stroke-width="2.15889"/><path d="m299.135 333.832h20.072" stroke="#fde7e7" stroke-linecap="round" stroke-width="2.15889"/><path d="m299.135 342.791h15.785" stroke="#fde7e7" stroke-linecap="round" stroke-width="2.15889"/><path d="m299.135 351.75h24.749" stroke="#fde7e7" stroke-linecap="round" stroke-width="2.15889"/><path clip-rule="evenodd" d="m290.756 313.186h171.101v-5.453c0-1.721-1.396-3.117-3.118-3.117h-164.865c-1.722 0-3.118 1.396-3.118 3.117z" fill="#fcd9d9" fill-rule="evenodd"/><path d="m296.601 310.849c1.076 0 1.949-.872 1.949-1.948 0-1.075-.873-1.947-1.949-1.947s-1.949.872-1.949 1.947c0 1.076.873 1.948 1.949 1.948z" fill="#fac7c7"/><path d="m303.227 310.849c1.076 0 1.949-.872 1.949-1.948 0-1.075-.873-1.947-1.949-1.947s-1.949.872-1.949 1.947c0 1.076.873 1.948 1.949 1.948z" fill="#fac7c7"/><path d="m309.853 310.849c1.076 0 1.949-.872 1.949-1.948 0-1.075-.873-1.947-1.949-1.947s-1.949.872-1.949 1.947c0 1.076.873 1.948 1.949 1.948z" fill="#fac7c7"/><path d="m348.049 375.512 14.198-20.646 14.198 10.518 14.198-13.634 14.198 17.919 14.199-35.837 14.197 27.657 14.199-14.024" stroke="#fac7c7" stroke-linecap="round" stroke-linejoin="round" stroke-width="2.87853"/><path d="m431.448 0h-155.628c-2.084 0-3.773 1.6882-3.773 3.7707v135.7453c0 2.082 1.689 3.771 3.773 3.771h155.628c2.083 0 3.773-1.689 3.773-3.771v-135.7453c0-2.0825-1.69-3.7707-3.773-3.7707z" fill="#fde7e7"/><path d="m386.175 14.6115h-67.911c-1.823 0-3.301 1.4771-3.301 3.2993s1.478 3.2994 3.301 3.2994h67.911c1.823 0 3.301-1.4772 3.301-3.2994s-1.478-3.2993-3.301-3.2993z" fill="#fac7c7"/><path d="m295.627 14.6115h-8.017c-1.823 0-3.301 1.4771-3.301 3.2993s1.478 3.2994 3.301 3.2994h8.017c1.823 0 3.301-1.4772 3.301-3.2994s-1.478-3.2993-3.301-3.2993z" fill="#fcd9d9"/><path d="m416.357 14.6115h-8.018c-1.823 0-3.301 1.4771-3.301 3.2993s1.478 3.2994 3.301 3.2994h8.018c1.823 0 3.301-1.4772 3.301-3.2994s-1.478-3.2993-3.301-3.2993z" fill="#fcd9d9"/><path d="m331.94 51.3759c3.647 0 6.603-2.9543 6.603-6.5987s-2.956-6.5987-6.603-6.5987c-3.646 0-6.602 2.9543-6.602 6.5987s2.956 6.5987 6.602 6.5987z" fill="#fcd9d9"/><path d="m352.219 51.3759c3.646 0 6.602-2.9543 6.602-6.5987s-2.956-6.5987-6.602-6.5987c-3.647 0-6.603 2.9543-6.603 6.5987s2.956 6.5987 6.603 6.5987z" fill="#fcd9d9"/><path d="m372.498 51.3759c3.646 0 6.602-2.9543 6.602-6.5987s-2.956-6.5987-6.602-6.5987-6.602 2.9543-6.602 6.5987 2.956 6.5987 6.602 6.5987z" fill="#fcd9d9"/><path d="m392.777 51.3759c3.647 0 6.603-2.9543 6.603-6.5987s-2.956-6.5987-6.603-6.5987c-3.646 0-6.602 2.9543-6.602 6.5987s2.956 6.5987 6.602 6.5987z" fill="#fac7c7"/><path d="m413.056 51.3759c3.646 0 6.602-2.9543 6.602-6.5987s-2.956-6.5987-6.602-6.5987c-3.647 0-6.603 2.9543-6.603 6.5987s2.956 6.5987 6.603 6.5987z" fill="#fac7c7"/><path d="m291.383 71.1719c3.646 0 6.602-2.9543 6.602-6.5987s-2.956-6.5987-6.602-6.5987c-3.647 0-6.603 2.9543-6.603 6.5987s2.956 6.5987 6.603 6.5987z" fill="#fcd9d9"/><path d="m311.662 71.1719c3.646 0 6.602-2.9543 6.602-6.5987s-2.956-6.5987-6.602-6.5987-6.602 2.9543-6.602 6.5987 2.956 6.5987 6.602 6.5987z" fill="#fcd9d9"/><path d="m331.94 71.1719c3.647 0 6.603-2.9543 6.603-6.5987s-2.956-6.5987-6.603-6.5987c-3.646 0-6.602 2.9543-6.602 6.5987s2.956 6.5987 6.602 6.5987z" fill="#fcd9d9"/><path d="m352.22 71.1719c3.646 0 6.602-2.9543 6.602-6.5987s-2.956-6.5987-6.602-6.5987c-3.647 0-6.603 2.9543-6.603 6.5987s2.956 6.5987 6.603 6.5987z" fill="#fcd9d9"/><path d="m372.498 71.1719c3.646 0 6.602-2.9543 6.602-6.5987s-2.956-6.5987-6.602-6.5987-6.602 2.9543-6.602 6.5987 2.956 6.5987 6.602 6.5987z" fill="#fcd9d9"/><path d="m392.777 71.1719c3.647 0 6.603-2.9543 6.603-6.5987s-2.956-6.5987-6.603-6.5987c-3.646 0-6.602 2.9543-6.602 6.5987s2.956 6.5987 6.602 6.5987z" fill="#fac7c7"/><path d="m413.056 71.1719c3.646 0 6.602-2.9543 6.602-6.5987s-2.956-6.5987-6.602-6.5987c-3.647 0-6.603 2.9543-6.603 6.5987s2.956 6.5987 6.603 6.5987z" fill="#fac7c7"/><path d="m291.383 90.9682c3.646 0 6.602-2.9544 6.602-6.5987 0-3.6444-2.956-6.5987-6.602-6.5987-3.647 0-6.603 2.9543-6.603 6.5987 0 3.6443 2.956 6.5987 6.603 6.5987z" fill="#fcd9d9"/><path d="m311.662 90.9682c3.646 0 6.602-2.9544 6.602-6.5987 0-3.6444-2.956-6.5987-6.602-6.5987s-6.602 2.9543-6.602 6.5987c0 3.6443 2.956 6.5987 6.602 6.5987z" fill="#fcd9d9"/><path d="m331.94 90.9682c3.647 0 6.603-2.9544 6.603-6.5987 0-3.6444-2.956-6.5987-6.603-6.5987-3.646 0-6.602 2.9543-6.602 6.5987 0 3.6443 2.956 6.5987 6.602 6.5987z" fill="#fcd9d9"/><path d="m352.22 90.9682c3.646 0 6.602-2.9544 6.602-6.5987 0-3.6444-2.956-6.5987-6.602-6.5987-3.647 0-6.603 2.9543-6.603 6.5987 0 3.6443 2.956 6.5987 6.603 6.5987z" fill="#fcd9d9"/><path d="m372.498 90.9682c3.646 0 6.602-2.9544 6.602-6.5987 0-3.6444-2.956-6.5987-6.602-6.5987s-6.602 2.9543-6.602 6.5987c0 3.6443 2.956 6.5987 6.602 6.5987z" fill="#fcd9d9"/><path d="m392.777 90.9682c3.647 0 6.603-2.9544 6.603-6.5987 0-3.6444-2.956-6.5987-6.603-6.5987-3.646 0-6.602 2.9543-6.602 6.5987 0 3.6443 2.956 6.5987 6.602 6.5987z" fill="#fac7c7"/><path d="m413.056 90.9682c3.646 0 6.602-2.9544 6.602-6.5987 0-3.6444-2.956-6.5987-6.602-6.5987-3.647 0-6.603 2.9543-6.603 6.5987 0 3.6443 2.956 6.5987 6.603 6.5987z" fill="#fac7c7"/><path d="m291.383 110.764c3.646 0 6.602-2.954 6.602-6.598 0-3.645-2.956-6.5991-6.602-6.5991-3.647 0-6.603 2.9541-6.603 6.5991 0 3.644 2.956 6.598 6.603 6.598z" fill="#fcd9d9"/><path d="m311.662 110.764c3.646 0 6.602-2.954 6.602-6.598 0-3.645-2.956-6.5991-6.602-6.5991s-6.602 2.9541-6.602 6.5991c0 3.644 2.956 6.598 6.602 6.598z" fill="#fcd9d9"/><path d="m331.94 110.764c3.647 0 6.603-2.954 6.603-6.598 0-3.645-2.956-6.5991-6.603-6.5991-3.646 0-6.602 2.9541-6.602 6.5991 0 3.644 2.956 6.598 6.602 6.598z" fill="#fcd9d9"/><path d="m352.22 110.764c3.646 0 6.602-2.954 6.602-6.598 0-3.645-2.956-6.5991-6.602-6.5991-3.647 0-6.603 2.9541-6.603 6.5991 0 3.644 2.956 6.598 6.603 6.598z" fill="#fcd9d9"/><path d="m372.498 110.764c3.646 0 6.602-2.954 6.602-6.598 0-3.645-2.956-6.5991-6.602-6.5991s-6.602 2.9541-6.602 6.5991c0 3.644 2.956 6.598 6.602 6.598z" fill="#fcd9d9"/><path d="m392.777 110.764c3.647 0 6.603-2.954 6.603-6.598 0-3.645-2.956-6.5991-6.603-6.5991-3.646 0-6.602 2.9541-6.602 6.5991 0 3.644 2.956 6.598 6.602 6.598z" fill="#fac7c7"/><path d="m413.056 110.764c3.646 0 6.602-2.954 6.602-6.598 0-3.645-2.956-6.5991-6.602-6.5991-3.647 0-6.603 2.9541-6.603 6.5991 0 3.644 2.956 6.598 6.603 6.598z" fill="#fac7c7"/><path d="m291.383 130.56c3.646 0 6.602-2.954 6.602-6.598 0-3.645-2.956-6.599-6.602-6.599-3.647 0-6.603 2.954-6.603 6.599 0 3.644 2.956 6.598 6.603 6.598z" fill="#fcd9d9"/><path d="m311.662 130.56c3.646 0 6.602-2.954 6.602-6.598 0-3.645-2.956-6.599-6.602-6.599s-6.602 2.954-6.602 6.599c0 3.644 2.956 6.598 6.602 6.598z" fill="#fcd9d9"/><path d="m331.94 130.56c3.647 0 6.603-2.954 6.603-6.598 0-3.645-2.956-6.599-6.603-6.599-3.646 0-6.602 2.954-6.602 6.599 0 3.644 2.956 6.598 6.602 6.598z" fill="#fcd9d9"/><path d="m352.22 130.56c3.646 0 6.602-2.954 6.602-6.598 0-3.645-2.956-6.599-6.602-6.599-3.647 0-6.603 2.954-6.603 6.599 0 3.644 2.956 6.598 6.603 6.598z" fill="#fcd9d9"/><path d="m321.036 170.616h-177.794c-3.125 0-5.659 2.533-5.659 5.656v69.758c0 3.124 2.534 5.656 5.659 5.656h177.794c3.125 0 5.659-2.532 5.659-5.656v-69.758c0-3.123-2.534-5.656-5.659-5.656z" fill="#fac7c7"/><path d="m163.286 214.451c10.027 0 18.156-8.125 18.156-18.147s-8.129-18.146-18.156-18.146c-10.028 0-18.157 8.124-18.157 18.146s8.129 18.147 18.157 18.147z" fill="#fae2e2"/><path d="m192.053 191.12h67.91" stroke="#fde7e7" stroke-linecap="round" stroke-width="5.22452"/><path d="m192.053 202.432h33.955" stroke="#fde7e7" stroke-linecap="round" stroke-width="5.22452"/><path d="m514.812 170.616h-112.712c-2.084 0-3.773 1.689-3.773 3.771v43.363c0 2.083 1.689 3.771 3.773 3.771h112.712c2.084 0 3.773-1.688 3.773-3.771v-43.363c0-2.082-1.689-3.771-3.773-3.771z" fill="#fac7c7"/><path clip-rule="evenodd" d="m497.835 238.138v-22.745h-24.052l20.738 23.978c.682.788 1.873.874 2.661.194.415-.359.653-.879.653-1.427z" fill="#fac7c7" fill-rule="evenodd"/><path d="m455.391 182.871h-42.916c-1.823 0-3.301 1.477-3.301 3.299 0 1.823 1.478 3.3 3.301 3.3h42.916c1.823 0 3.301-1.477 3.301-3.3 0-1.822-1.478-3.299-3.301-3.299z" fill="#fde7e7"/><path d="m494.534 196.54h-82.059c-1.823 0-3.301 1.477-3.301 3.299s1.478 3.3 3.301 3.3h82.059c1.823 0 3.301-1.478 3.301-3.3s-1.478-3.299-3.301-3.299z" fill="#fde7e7"/><path d="m590.814 0h-112.712c-2.084 0-3.773 1.6882-3.773 3.7707v57.0318c0 2.0825 1.689 3.7707 3.773 3.7707h112.712c2.084 0 3.773-1.6882 3.773-3.7707v-57.0318c0-2.0825-1.689-3.7707-3.773-3.7707z" fill="#fde7e7"/><path clip-rule="evenodd" d="m496.966 81.1908v-22.7448h24.052l-20.739 23.9777c-.681.7878-1.872.8744-2.66.1934-.415-.3581-.653-.8787-.653-1.4263z" fill="#fde7e7" fill-rule="evenodd"/><path d="m579.968 12.2549h-91.491c-1.823 0-3.301 1.4772-3.301 3.2993 0 1.8222 1.478 3.2994 3.301 3.2994h91.491c1.823 0 3.301-1.4772 3.301-3.2994 0-1.8221-1.478-3.2993-3.301-3.2993z" fill="#fac7c7"/><path d="m579.968 25.9236h-91.491c-1.823 0-3.301 1.4772-3.301 3.2993 0 1.8222 1.478 3.2994 3.301 3.2994h91.491c1.823 0 3.301-1.4772 3.301-3.2994 0-1.8221-1.478-3.2993-3.301-3.2993z" fill="#fac7c7"/><path d="m536.109 39.5924h-47.632c-1.823 0-3.301 1.4772-3.301 3.2994s1.478 3.2993 3.301 3.2993h47.632c1.823 0 3.301-1.4771 3.301-3.2993s-1.478-3.2994-3.301-3.2994z" fill="#fac7c7"/><path d="m635.166 103.616h-74.041c-7.683 0-13.912 6.226-13.912 13.905v104.637c0 7.679 6.229 13.904 13.912 13.904h74.041c7.684 0 13.913-6.225 13.913-13.904v-104.637c0-7.679-6.229-13.905-13.913-13.905z" fill="#fde7e7"/><path d="m635.166 103.616h-74.041c-7.683 0-13.912 6.226-13.912 13.905s6.229 13.904 13.912 13.904h74.041c7.684 0 13.913-6.225 13.913-13.904s-6.229-13.905-13.913-13.905z" fill="#fac7c7"/><path d="m604.984 113.043h-46.217c-2.474 0-4.48 2.005-4.48 4.478s2.006 4.477 4.48 4.477h46.217c2.475 0 4.48-2.004 4.48-4.477s-2.005-4.478-4.48-4.478z" fill="#fde7e7"/><path d="m632.337 144.151h-67.439c-2.474 0-4.48 2.005-4.48 4.478s2.006 4.478 4.48 4.478h67.439c2.474 0 4.48-2.005 4.48-4.478s-2.006-4.478-4.48-4.478z" fill="#fac7c7"/><path d="m599.797 161.12h-34.899c-2.474 0-4.48 2.004-4.48 4.477s2.006 4.478 4.48 4.478h34.899c2.474 0 4.48-2.005 4.48-4.478s-2.006-4.477-4.48-4.477z" fill="#fac7c7"/><path d="m623.377 195.056h-58.479c-2.474 0-4.48 2.005-4.48 4.477 0 2.473 2.006 4.478 4.48 4.478h58.479c2.474 0 4.48-2.005 4.48-4.478 0-2.472-2.006-4.477-4.48-4.477z" fill="#fac7c7"/><path d="m611.115 178.088h-46.217c-2.474 0-4.48 2.004-4.48 4.477s2.006 4.478 4.48 4.478h46.217c2.474 0 4.48-2.005 4.48-4.478s-2.006-4.477-4.48-4.477z" fill="#fac7c7"/><path d="m611.115 212.024h-46.217c-2.474 0-4.48 2.005-4.48 4.478s2.006 4.477 4.48 4.477h46.217c2.474 0 4.48-2.004 4.48-4.477s-2.006-4.478-4.48-4.478z" fill="#fac7c7"/><path d="m637.289 124.355c3.646 0 6.602-2.954 6.602-6.599 0-3.644-2.956-6.598-6.602-6.598s-6.602 2.954-6.602 6.598c0 3.645 2.956 6.599 6.602 6.599z" fill="#fde7e7"/><path d="m497.706 123.743c-.108-.038-.228-.021-.322.045-.093.067-.149.174-.149.289v2.999c0 .391-.316.707-.707.707s-.708-.316-.708-.707v-3.535c-.355-.858-1.193-1.416-2.122-1.414h-.353c-.196 0-.354.158-.354.354v3.181c0 .391-.317.707-.708.707-.39 0-.707-.316-.707-.707v-3.535c-.355-.858-1.193-1.416-2.122-1.414h-.354c-.195 0-.354.158-.354.354v4.595c0 .391-.316.707-.707.707s-.707-.316-.707-.707v-11.312c0-1.562-1.267-2.828-2.83-2.828s-2.83 1.266-2.83 2.828l.037 19.222c0 .391-.316.707-.707.707s-.708-.316-.708-.707v-6.811c.001-.129-.069-.249-.182-.311-.114-.062-.252-.058-.361.013-1.421.901-2.283 2.466-2.286 4.148v4.02c.005 1.687.676 3.303 1.866 4.498l2.442 2.444v1.008c0 .39.317.707.707.707l13.517.052c.632 0 1.186-.418 1.36-1.025l2.148-7.483c.372-1.327.562-2.698.565-4.077v-3.676c.001-1.501-.947-2.838-2.364-3.336z" fill="#fac7c7"/><path d="m402.296 272.973-9.907-9.899c-.111-.11-.168-.265-.154-.422.014-.156.097-.299.227-.388l6.366-4.412c.67-.464 1.015-1.271.887-2.076s-.706-1.465-1.487-1.699l-26.948-8.083c-.561-.167-1.168-.013-1.582.4-.413.414-.567 1.02-.4 1.581l8.087 26.937c.235.78.896 1.358 1.701 1.485.805.128 1.613-.217 2.077-.887l4.412-6.363c.089-.129.231-.212.388-.227.156-.014.311.042.423.153l9.906 9.901c.829.828 2.172.828 3.001 0l3.003-3.002c.828-.828.828-2.171 0-2.999z" fill="#fac7c7"/><path d="m649.244 61.7687c15.237 0 27.589-12.345 27.589-27.5733s-12.352-27.57321-27.589-27.57321-27.589 12.34491-27.589 27.57321 12.352 27.5733 27.589 27.5733z" fill="#fde7e7"/><path d="m663.845 19.5123c-.203-.1686-.482-.2111-.725-.1103l-32.54 13.4331c-.266.1109-.438.3721-.435.6602s.18.5455.449.6506l8.958 3.477c.22.0858.469.0561.662-.0791l11.885-8.4473c.302-.2181.721-.165.959.1215.238.2866.212.7083-.058.9644l-9.904 9.5375c-.138.1333-.216.3171-.216.5091v9.5205c.001.3186.215.5972.523.6804.307.0832.633-.0495.794-.3241l4.481-7.671c.097-.1654.308-.2236.477-.1315l8.242 4.5249c.196.1078.431.1168.635.0243.203-.0924.351-.2755.398-.4938l5.659-26.1592c.05-.2565-.044-.5197-.244-.6872z" fill="#fac7c7"/><path d="m246.203 295.657h-195.2508c-3.1255 0-5.6592 2.532-5.6592 5.656v32.522c0 3.124 2.5337 5.656 5.6592 5.656h195.2508c3.125 0 5.659-2.532 5.659-5.656v-32.522c0-3.124-2.534-5.656-5.659-5.656z" fill="#fde7e7"/><path d="m246.203 295.657h-32.069c-3.126 0-5.659 2.532-5.659 5.656v32.522c0 3.124 2.533 5.656 5.659 5.656h32.069c3.125 0 5.659-2.532 5.659-5.656v-32.522c0-3.124-2.534-5.656-5.659-5.656z" fill="#fac7c7"/><path d="m230.168 328.651c5.991 0 10.847-4.854 10.847-10.841s-4.856-10.841-10.847-10.841c-5.99 0-10.847 4.854-10.847 10.841s4.857 10.841 10.847 10.841z" fill="#fde7e7"/><path d="m126.271 311.683h-58.9498c-3.3859 0-6.1308 2.743-6.1308 6.127s2.7449 6.127 6.1308 6.127h58.9498c3.386 0 6.131-2.743 6.131-6.127s-2.745-6.127-6.131-6.127z" fill="#fac7c7"/><path clip-rule="evenodd" d="m51.8763 46.7443h31.6921c1.751 0 3.4304.6952 4.6686 1.9327l5.5644 5.5613c1.2382 1.2375 2.9175 1.9327 4.6686 1.9327h9.527c2.083 0 3.773 1.6882 3.773 3.7707v47.6053c0 2.082-1.69 3.77-3.773 3.77h-56.1207c-2.0836 0-3.7728-1.688-3.7728-3.77v-57.032c0-2.0825 1.6892-3.7707 3.7728-3.7707z" fill="#fac7c7" fill-rule="evenodd"/><path clip-rule="evenodd" d="m3.7728 46.7443h31.692c1.7511 0 3.4304.6952 4.6686 1.9327l5.5644 5.5613c1.2382 1.2375 2.9176 1.9327 4.6687 1.9327h66.1185c2.084 0 3.773 1.6882 3.773 3.7707v47.6053c0 2.082-1.689 3.77-3.773 3.77h-112.7122c-2.08366 0-3.7728-1.688-3.7728-3.77v-57.032c0-2.0825 1.68914-3.7707 3.7728-3.7707z" fill="#fde7e7" fill-rule="evenodd"/></g></svg>